<?xml version="1.0" encoding="UTF-8" standalone="no"?>
<!-- Created with Inkscape (http://www.inkscape.org/) -->

<svg
   version="1.1"
   id="svg21115"
   width="800"
   height="800"
   viewBox="0 0 800 800"
   sodipodi:docname="interior-room-publicdomain.svg"
   inkscape:version="1.2 (dc2aedaf03, 2022-05-15)"
   xmlns:inkscape="http://www.inkscape.org/namespaces/inkscape"
   xmlns:sodipodi="http://sodipodi.sourceforge.net/DTD/sodipodi-0.dtd"
   xmlns="http://www.w3.org/2000/svg"
   xmlns:svg="http://www.w3.org/2000/svg">
  <defs
     id="defs21119" />
  <sodipodi:namedview
     id="namedview21117"
     pagecolor="#ffffff"
     bordercolor="#000000"
     borderopacity="0.25"
     inkscape:showpageshadow="2"
     inkscape:pageopacity="0.0"
     inkscape:pagecheckerboard="0"
     inkscape:deskcolor="#d1d1d1"
     showgrid="false"
     inkscape:zoom="1.04625"
     inkscape:cx="400"
     inkscape:cy="400.4779"
     inkscape:window-width="1920"
     inkscape:window-height="1017"
     inkscape:window-x="-8"
     inkscape:window-y="-8"
     inkscape:window-maximized="1"
     inkscape:current-layer="g21123">
    <inkscape:page
       x="0"
       y="0"
       id="page21121"
       width="800"
       height="800" />
  </sodipodi:namedview>
  <g
     id="g21123"
     inkscape:groupmode="layer"
     inkscape:label="Page 1"
     transform="matrix(1.3333333,0,0,-1.3333333,0,800)">
    <path
       d="M 0,0.778 H 599.433 V 600.001 H 0 Z"
       style="fill:#af7a44;fill-opacity:1;fill-rule:nonzero;stroke:none"
       id="path21125" />
    <g
       id="g21127"
       transform="translate(278.7174,210.7656)">
      <path
         d="M 0,0 -37.547,-209.988 H 86.369 L 41.433,0 Z"
         style="fill:#bb874f;fill-opacity:1;fill-rule:nonzero;stroke:none"
         id="path21129" />
    </g>
    <g
       id="g21131"
       transform="translate(278.7178,210.7656)">
      <path
         d="M 0,0 -2.515,-14.057 H 44.441 L 41.433,0 Z"
         style="fill:#b07c45;fill-opacity:1;fill-rule:evenodd;stroke:none"
         id="path21133" />
    </g>
    <g
       id="g21135"
       transform="translate(320.1507,210.7656)">
      <path
         d="m 0,0 44.935,-209.988 h 88.438 L 40.089,0 Z"
         style="fill:#af7a44;fill-opacity:1;fill-rule:nonzero;stroke:none"
         id="path21137" />
    </g>
    <g
       id="g21139"
       transform="translate(366.4834,196.709)">
      <path
         d="M 0,0 -6.244,14.057 H -46.333 L -43.324,0 Z"
         style="fill:#a7713a;fill-opacity:1;fill-rule:evenodd;stroke:none"
         id="path21141" />
    </g>
    <g
       id="g21143"
       transform="translate(360.2394,210.7656)">
      <path
         d="M 0,0 93.284,-209.988 H 186.97 L 40.089,0 Z"
         style="fill:#9e6d3b;fill-opacity:1;fill-rule:nonzero;stroke:none"
         id="path21145" />
    </g>
    <g
       id="g21147"
       transform="translate(410.1602,196.709)">
      <path
         d="M 0,0 -9.832,14.057 H -49.921 L -43.677,0 Z"
         style="fill:#8f5d2f;fill-opacity:1;fill-rule:evenodd;stroke:none"
         id="path21149" />
    </g>
    <g
       id="g21151"
       transform="translate(400.3281,210.7656)">
      <path
         d="m 0,0 146.881,-209.988 h 52.224 v 43.428 L 40.09,0 Z"
         style="fill:#bb874f;fill-opacity:1;fill-rule:nonzero;stroke:none"
         id="path21153" />
    </g>
    <g
       id="g21155"
       transform="translate(400.3281,210.7656)">
      <path
         d="M 0,0 9.832,-14.057 H 53.51 L 40.09,0 Z"
         style="fill:#b07c45;fill-opacity:1;fill-rule:evenodd;stroke:none"
         id="path21157" />
    </g>
    <g
       id="g21159"
       transform="translate(440.4177,210.7656)">
      <path
         d="m 0,0 159.016,-166.56 v 68.269 L 40.091,0 Z"
         style="fill:#c6935a;fill-opacity:1;fill-rule:nonzero;stroke:none"
         id="path21161" />
    </g>
    <g
       id="g21163"
       transform="translate(440.418,210.7656)">
      <path
         d="M 0,0 13.42,-14.057 H 57.098 L 40.09,0 Z"
         style="fill:#bc854b;fill-opacity:1;fill-rule:evenodd;stroke:none"
         id="path21165" />
    </g>
    <g
       id="g21167"
       transform="translate(480.5082,210.7656)">
      <path
         d="m 0,0 118.925,-98.291 v 44.484 L 40.088,0 Z"
         style="fill:#b47f49;fill-opacity:1;fill-rule:nonzero;stroke:none"
         id="path21169" />
    </g>
    <g
       id="g21171"
       transform="translate(541.1914,196.709)">
      <path
         d="M 0,0 -20.596,14.057 H -60.684 L -43.676,0 Z"
         style="fill:#a7713a;fill-opacity:1;fill-rule:evenodd;stroke:none"
         id="path21173" />
    </g>
    <g
       id="g21175"
       transform="translate(520.596,210.7656)">
      <path
         d="m 0,0 78.837,-53.807 v 31.285 L 40.09,0 Z"
         style="fill:#cc9a62;fill-opacity:1;fill-rule:nonzero;stroke:none"
         id="path21177" />
    </g>
    <g
       id="g21179"
       transform="translate(584.8691,196.709)">
      <path
         d="M 0,0 -24.184,14.057 H -64.273 L -43.678,0 Z"
         style="fill:#bc854b;fill-opacity:1;fill-rule:evenodd;stroke:none"
         id="path21181" />
    </g>
    <g
       id="g21183"
       transform="translate(560.6856,210.7656)">
      <path
         d="M 0,0 38.748,-22.522 V 0 Z"
         style="fill:#9e6936;fill-opacity:1;fill-rule:nonzero;stroke:none"
         id="path21185" />
    </g>
    <g
       id="g21187"
       transform="translate(560.6856,210.7656)">
      <path
         d="M 0,0 24.184,-14.056 H 38.748 L 38.748,0 Z"
         style="fill:#8f5d2f;fill-opacity:1;fill-rule:nonzero;stroke:none"
         id="path21189" />
    </g>
    <g
       id="g21191"
       transform="translate(238.626,210.7656)">
      <path
         d="M 0,0 -93.283,-209.988 H 2.544 L 40.091,0 Z"
         style="fill:#c6935a;fill-opacity:1;fill-rule:nonzero;stroke:none"
         id="path21193" />
    </g>
    <g
       id="g21195"
       transform="translate(232.3818,196.709)">
      <path
         d="M 0,0 6.244,14.057 H 46.336 L 43.821,0 Z"
         style="fill:#bc854b;fill-opacity:1;fill-rule:evenodd;stroke:none"
         id="path21197" />
    </g>
    <g
       id="g21199"
       transform="translate(198.5364,210.7656)">
      <path
         d="m 0,0 -146.878,-209.988 h 93.684 L 40.09,0 Z"
         style="fill:#b47f49;fill-opacity:1;fill-rule:nonzero;stroke:none"
         id="path21201" />
    </g>
    <g
       id="g21203"
       transform="translate(188.7046,196.709)">
      <path
         d="M 0,0 9.832,14.057 H 49.921 L 43.677,0 Z"
         style="fill:#a7713a;fill-opacity:1;fill-rule:evenodd;stroke:none"
         id="path21205" />
    </g>
    <g
       id="g21207"
       transform="translate(158.4477,210.7656)">
      <path
         d="m 0,0 -158.448,-165.967 v -44.021 h 51.659 L 40.089,0 Z"
         style="fill:#9e6d3b;fill-opacity:1;fill-rule:nonzero;stroke:none"
         id="path21209" />
    </g>
    <g
       id="g21211"
       transform="translate(198.5366,210.7656)">
      <path
         d="M 0,0 -9.832,-14.057 H -53.508 L -40.089,0 Z"
         style="fill:#8f5d2f;fill-opacity:1;fill-rule:evenodd;stroke:none"
         id="path21213" />
    </g>
    <g
       id="g21215"
       transform="translate(118.3581,210.7656)">
      <path
         d="m 0,0 -118.358,-97.823 v -68.144 L 40.09,0 Z"
         style="fill:#af7a44;fill-opacity:1;fill-rule:nonzero;stroke:none"
         id="path21217" />
    </g>
    <g
       id="g21219"
       transform="translate(158.4473,210.7656)">
      <path
         d="M 0,0 -13.419,-14.057 H -57.096 L -40.089,0 Z"
         style="fill:#a16831;fill-opacity:1;fill-rule:evenodd;stroke:none"
         id="path21221" />
    </g>
    <g
       id="g21223"
       transform="translate(78.2685,210.7656)">
      <path
         d="M 0,0 -78.269,-53.421 V -97.823 L 40.09,0 Z"
         style="fill:#cc9a62;fill-opacity:1;fill-rule:nonzero;stroke:none"
         id="path21225" />
    </g>
    <g
       id="g21227"
       transform="translate(57.6743,196.709)">
      <path
         d="m 0,0 20.594,14.057 h 40.09 L 43.677,0 Z"
         style="fill:#bb8850;fill-opacity:1;fill-rule:evenodd;stroke:none"
         id="path21229" />
    </g>
    <g
       id="g21231"
       transform="translate(38.1789,210.7656)">
      <path
         d="M 0,0 -38.179,-22.193 V -53.421 L 40.09,0 Z"
         style="fill:#9e6936;fill-opacity:1;fill-rule:nonzero;stroke:none"
         id="path21233" />
    </g>
    <g
       id="g21235"
       transform="translate(13.9976,196.709)">
      <path
         d="M 0,0 24.182,14.057 H 64.271 L 43.677,0 Z"
         style="fill:#8f5928;fill-opacity:1;fill-rule:evenodd;stroke:none"
         id="path21237" />
    </g>
    <g
       id="g21239"
       transform="translate(0,210.7656)">
      <path
         d="M 0,0 V -22.193 L 38.179,0 Z"
         style="fill:#bb874f;fill-opacity:1;fill-rule:nonzero;stroke:none"
         id="path21241" />
    </g>
    <g
       id="g21243"
       transform="translate(0,210.7656)">
      <path
         d="M 0,0 V -14.056 H 13.998 L 38.179,0 Z"
         style="fill:#af7942;fill-opacity:1;fill-rule:nonzero;stroke:none"
         id="path21245" />
    </g>
    <path
       d="M 0,210.766 H 599.433 V 600.001 H 0 Z"
       style="fill:#603616;fill-opacity:1;fill-rule:nonzero;stroke:none"
       id="path21247" />
    <path
       d="m 118.201,547.443 h 73.615 v -20.146 h -73.615 z"
       style="fill:#77481f;fill-opacity:1;fill-rule:evenodd;stroke:none"
       id="path21249" />
    <path
       d="m 196.611,547.443 h 73.615 v -20.146 h -73.615 z"
       style="fill:#77481f;fill-opacity:1;fill-rule:evenodd;stroke:none"
       id="path21251" />
    <path
       d="m 275.02,547.443 h 73.616 V 527.297 H 275.02 Z"
       style="fill:#77481f;fill-opacity:1;fill-rule:evenodd;stroke:none"
       id="path21253" />
    <path
       d="m 353.43,547.443 h 73.615 V 527.297 H 353.43 Z"
       style="fill:#77481f;fill-opacity:1;fill-rule:evenodd;stroke:none"
       id="path21255" />
    <path
       d="m 431.84,547.443 h 73.615 V 527.297 H 431.84 Z"
       style="fill:#77481f;fill-opacity:1;fill-rule:evenodd;stroke:none"
       id="path21257" />
    <path
       d="m 510.248,547.443 h 73.617 v -20.146 h -73.617 z"
       style="fill:#77481f;fill-opacity:1;fill-rule:evenodd;stroke:none"
       id="path21259" />
    <path
       d="m 0.322,503.468 h 73.615 v 20.148 H 0.322 Z"
       style="fill:#77481f;fill-opacity:1;fill-rule:nonzero;stroke:none"
       id="path21261" />
    <path
       d="m 78.73,523.616 h 73.615 V 503.468 H 78.73 Z"
       style="fill:#77481f;fill-opacity:1;fill-rule:evenodd;stroke:none"
       id="path21263" />
    <path
       d="m 157.142,523.616 h 73.613 v -20.148 h -73.613 z"
       style="fill:#77481f;fill-opacity:1;fill-rule:evenodd;stroke:none"
       id="path21265" />
    <path
       d="m 235.548,503.468 h 73.616 v 20.148 h -73.616 z m 78.41,-48.113 h 73.616 v 20.148 H 313.958 Z M 431.84,382.958 h 73.616 v 20.148 H 431.84 Z M 157.142,359.132 h 73.613 v 20.146 h -73.613 z m -156.82,0 h 73.615 v 20.146 H 0.322 Z m 509.926,-72.398 h 73.617 v 20.147 h -73.617 z m -235.228,0 h 73.615 v 20.147 H 275.02 Z m 38.938,-71.941 h 73.616 v 20.148 h -73.616 z m -156.816,0 h 73.613 v 20.148 h -73.613 z"
       style="fill:#865427;fill-opacity:1;fill-rule:nonzero;stroke:none"
       id="path21267" />
    <path
       d="m 313.958,523.616 h 73.615 v -20.148 h -73.615 z"
       style="fill:#77481f;fill-opacity:1;fill-rule:evenodd;stroke:none"
       id="path21269" />
    <path
       d="m 118.201,499.331 h 73.615 v -20.147 h -73.615 z m 274.166,72.396 h 73.615 v -20.146 h -73.615 z m -195.756,23.83 h 73.615 V 575.409 H 196.611 Z M 78.73,571.727 h 73.615 V 551.581 H 78.73 Z m 0,-144.337 h 73.615 V 407.245 H 78.73 Z m 0,-144.336 h 73.615 V 262.907 H 78.73 Z m 117.881,71.939 h 73.615 v -20.147 h -73.615 z m 274.166,24.284 h 73.615 V 359.132 H 470.777 Z M 353.43,306.881 h 73.615 V 286.733 H 353.43 Z m 38.937,216.735 h 73.615 v -20.148 h -73.615 z"
       style="fill:#a3672c;fill-opacity:1;fill-rule:evenodd;stroke:none"
       id="path21271" />
    <path
       d="m 470.777,523.616 h 73.615 v -20.148 h -73.615 z"
       style="fill:#77481f;fill-opacity:1;fill-rule:evenodd;stroke:none"
       id="path21273" />
    <path
       d="m 196.611,499.331 h 73.615 v -20.147 h -73.615 z"
       style="fill:#77481f;fill-opacity:1;fill-rule:evenodd;stroke:none"
       id="path21275" />
    <path
       d="m 275.02,499.331 h 73.616 V 479.184 H 275.02 Z"
       style="fill:#77481f;fill-opacity:1;fill-rule:evenodd;stroke:none"
       id="path21277" />
    <path
       d="m 353.43,499.331 h 73.615 V 479.184 H 353.43 Z"
       style="fill:#77481f;fill-opacity:1;fill-rule:evenodd;stroke:none"
       id="path21279" />
    <path
       d="m 431.84,499.331 h 73.615 V 479.184 H 431.84 Z"
       style="fill:#77481f;fill-opacity:1;fill-rule:evenodd;stroke:none"
       id="path21281" />
    <path
       d="m 275.02,575.409 h 73.615 v 20.148 H 275.02 Z m 195.757,-23.828 h 73.615 v 20.146 h -73.615 z m 39.471,-72.397 h 73.617 v 20.147 h -73.617 z m -470.455,0 h 73.615 v 20.147 H 39.793 Z M 196.61,431.071 h 73.615 v 20.147 H 196.61 Z m 78.41,-48.113 h 73.615 v 20.148 H 275.02 Z m 195.757,-71.94 h 73.615 v 20.147 h -73.615 z m -470.455,0 h 73.615 v 20.147 H 0.322 Z M 431.84,238.622 h 73.616 v 20.147 H 431.84 Z m 117.347,-23.829 h 50.246 v 20.148 h -50.246 z"
       style="fill:#ba8248;fill-opacity:1;fill-rule:nonzero;stroke:none"
       id="path21283" />
    <path
       d="m 0.322,455.355 h 73.615 v 20.148 H 0.322 Z"
       style="fill:#77481f;fill-opacity:1;fill-rule:nonzero;stroke:none"
       id="path21285" />
    <path
       d="m 78.73,475.503 h 73.615 V 455.355 H 78.73 Z"
       style="fill:#77481f;fill-opacity:1;fill-rule:evenodd;stroke:none"
       id="path21287" />
    <path
       d="m 157.142,475.503 h 73.613 v -20.148 h -73.613 z"
       style="fill:#77481f;fill-opacity:1;fill-rule:evenodd;stroke:none"
       id="path21289" />
    <path
       d="m 235.548,475.503 h 73.616 v -20.148 h -73.616 z"
       style="fill:#77481f;fill-opacity:1;fill-rule:evenodd;stroke:none"
       id="path21291" />
    <path
       d="m 392.367,475.503 h 73.615 v -20.148 h -73.615 z"
       style="fill:#77481f;fill-opacity:1;fill-rule:evenodd;stroke:none"
       id="path21293" />
    <path
       d="m 470.777,475.503 h 73.615 v -20.148 h -73.615 z"
       style="fill:#77481f;fill-opacity:1;fill-rule:evenodd;stroke:none"
       id="path21295" />
    <path
       d="m 118.201,451.219 h 73.615 v -20.148 h -73.615 z"
       style="fill:#77481f;fill-opacity:1;fill-rule:evenodd;stroke:none"
       id="path21297" />
    <path
       d="m 275.02,451.219 h 73.616 V 431.071 H 275.02 Z"
       style="fill:#77481f;fill-opacity:1;fill-rule:evenodd;stroke:none"
       id="path21299" />
    <path
       d="m 353.43,451.219 h 73.615 V 431.071 H 353.43 Z"
       style="fill:#77481f;fill-opacity:1;fill-rule:evenodd;stroke:none"
       id="path21301" />
    <path
       d="m 431.84,451.219 h 73.615 V 431.071 H 431.84 Z"
       style="fill:#77481f;fill-opacity:1;fill-rule:evenodd;stroke:none"
       id="path21303" />
    <path
       d="m 510.248,451.219 h 73.617 v -20.148 h -73.617 z"
       style="fill:#77481f;fill-opacity:1;fill-rule:evenodd;stroke:none"
       id="path21305" />
    <path
       d="m 0.322,407.245 h 73.615 v 20.146 H 0.322 Z"
       style="fill:#77481f;fill-opacity:1;fill-rule:nonzero;stroke:none"
       id="path21307" />
    <path
       d="m 157.142,427.39 h 73.613 v -20.145 h -73.613 z"
       style="fill:#77481f;fill-opacity:1;fill-rule:evenodd;stroke:none"
       id="path21309" />
    <path
       d="m 235.548,427.39 h 73.616 v -20.145 h -73.616 z"
       style="fill:#77481f;fill-opacity:1;fill-rule:evenodd;stroke:none"
       id="path21311" />
    <path
       d="m 313.958,427.39 h 73.615 v -20.145 h -73.615 z"
       style="fill:#77481f;fill-opacity:1;fill-rule:evenodd;stroke:none"
       id="path21313" />
    <path
       d="m 392.367,427.39 h 73.615 v -20.145 h -73.615 z"
       style="fill:#77481f;fill-opacity:1;fill-rule:evenodd;stroke:none"
       id="path21315" />
    <path
       d="m 470.777,427.39 h 73.615 v -20.145 h -73.615 z"
       style="fill:#77481f;fill-opacity:1;fill-rule:evenodd;stroke:none"
       id="path21317" />
    <path
       d="m 39.793,451.219 h 73.615 V 431.071 H 39.793 Z"
       style="fill:#77481f;fill-opacity:1;fill-rule:evenodd;stroke:none"
       id="path21319" />
    <path
       d="m 118.201,403.106 h 73.615 v -20.148 h -73.615 z"
       style="fill:#77481f;fill-opacity:1;fill-rule:evenodd;stroke:none"
       id="path21321" />
    <path
       d="m 196.611,403.106 h 73.615 v -20.148 h -73.615 z"
       style="fill:#77481f;fill-opacity:1;fill-rule:evenodd;stroke:none"
       id="path21323" />
    <path
       d="m 353.43,403.106 h 73.615 V 382.958 H 353.43 Z"
       style="fill:#77481f;fill-opacity:1;fill-rule:evenodd;stroke:none"
       id="path21325" />
    <path
       d="m 510.248,403.106 h 73.617 v -20.148 h -73.617 z"
       style="fill:#77481f;fill-opacity:1;fill-rule:evenodd;stroke:none"
       id="path21327" />
    <path
       d="m 78.73,379.277 h 73.615 V 359.132 H 78.73 Z"
       style="fill:#77481f;fill-opacity:1;fill-rule:evenodd;stroke:none"
       id="path21329" />
    <path
       d="m 235.548,379.277 h 73.616 v -20.145 h -73.616 z"
       style="fill:#77481f;fill-opacity:1;fill-rule:evenodd;stroke:none"
       id="path21331" />
    <path
       d="m 313.958,379.277 h 73.615 v -20.145 h -73.615 z"
       style="fill:#77481f;fill-opacity:1;fill-rule:evenodd;stroke:none"
       id="path21333" />
    <path
       d="m 392.367,379.277 h 73.615 v -20.145 h -73.615 z"
       style="fill:#77481f;fill-opacity:1;fill-rule:evenodd;stroke:none"
       id="path21335" />
    <path
       d="m 39.793,403.106 h 73.615 V 382.958 H 39.793 Z"
       style="fill:#77481f;fill-opacity:1;fill-rule:evenodd;stroke:none"
       id="path21337" />
    <path
       d="m 118.201,354.993 h 73.615 v -20.147 h -73.615 z"
       style="fill:#77481f;fill-opacity:1;fill-rule:evenodd;stroke:none"
       id="path21339" />
    <path
       d="m 275.02,354.993 h 73.616 V 334.846 H 275.02 Z"
       style="fill:#77481f;fill-opacity:1;fill-rule:evenodd;stroke:none"
       id="path21341" />
    <path
       d="m 353.43,354.993 h 73.615 V 334.846 H 353.43 Z"
       style="fill:#77481f;fill-opacity:1;fill-rule:evenodd;stroke:none"
       id="path21343" />
    <path
       d="m 431.84,354.993 h 73.615 V 334.846 H 431.84 Z"
       style="fill:#77481f;fill-opacity:1;fill-rule:evenodd;stroke:none"
       id="path21345" />
    <path
       d="m 510.248,354.993 h 73.617 v -20.147 h -73.617 z"
       style="fill:#77481f;fill-opacity:1;fill-rule:evenodd;stroke:none"
       id="path21347" />
    <path
       d="m 78.73,331.165 h 73.615 V 311.018 H 78.73 Z"
       style="fill:#77481f;fill-opacity:1;fill-rule:evenodd;stroke:none"
       id="path21349" />
    <path
       d="m 157.142,331.165 h 73.613 v -20.147 h -73.613 z"
       style="fill:#77481f;fill-opacity:1;fill-rule:evenodd;stroke:none"
       id="path21351" />
    <path
       d="m 235.548,331.165 h 73.616 v -20.147 h -73.616 z"
       style="fill:#77481f;fill-opacity:1;fill-rule:evenodd;stroke:none"
       id="path21353" />
    <path
       d="m 313.958,331.165 h 73.615 v -20.147 h -73.615 z"
       style="fill:#77481f;fill-opacity:1;fill-rule:evenodd;stroke:none"
       id="path21355" />
    <path
       d="m 392.367,331.165 h 73.615 v -20.147 h -73.615 z"
       style="fill:#77481f;fill-opacity:1;fill-rule:evenodd;stroke:none"
       id="path21357" />
    <path
       d="m 39.793,354.993 h 73.615 V 334.846 H 39.793 Z"
       style="fill:#77481f;fill-opacity:1;fill-rule:evenodd;stroke:none"
       id="path21359" />
    <path
       d="m 118.201,306.881 h 73.615 v -20.148 h -73.615 z"
       style="fill:#77481f;fill-opacity:1;fill-rule:evenodd;stroke:none"
       id="path21361" />
    <path
       d="m 196.611,306.881 h 73.615 v -20.148 h -73.615 z"
       style="fill:#77481f;fill-opacity:1;fill-rule:evenodd;stroke:none"
       id="path21363" />
    <path
       d="m 431.84,306.881 h 73.615 V 286.733 H 431.84 Z"
       style="fill:#77481f;fill-opacity:1;fill-rule:evenodd;stroke:none"
       id="path21365" />
    <path
       d="m 0.322,262.906 h 73.615 v 20.147 H 0.322 Z"
       style="fill:#77481f;fill-opacity:1;fill-rule:nonzero;stroke:none"
       id="path21367" />
    <path
       d="m 157.142,283.054 h 73.613 v -20.147 h -73.613 z"
       style="fill:#77481f;fill-opacity:1;fill-rule:evenodd;stroke:none"
       id="path21369" />
    <path
       d="m 235.548,283.054 h 73.616 v -20.147 h -73.616 z"
       style="fill:#77481f;fill-opacity:1;fill-rule:evenodd;stroke:none"
       id="path21371" />
    <path
       d="m 313.958,283.054 h 73.615 v -20.147 h -73.615 z"
       style="fill:#77481f;fill-opacity:1;fill-rule:evenodd;stroke:none"
       id="path21373" />
    <path
       d="m 392.367,283.054 h 73.615 v -20.147 h -73.615 z"
       style="fill:#77481f;fill-opacity:1;fill-rule:evenodd;stroke:none"
       id="path21375" />
    <path
       d="m 470.777,283.054 h 73.615 v -20.147 h -73.615 z"
       style="fill:#77481f;fill-opacity:1;fill-rule:evenodd;stroke:none"
       id="path21377" />
    <path
       d="m 39.793,306.881 h 73.615 V 286.733 H 39.793 Z"
       style="fill:#77481f;fill-opacity:1;fill-rule:evenodd;stroke:none"
       id="path21379" />
    <path
       d="m 118.201,258.769 h 73.615 v -20.147 h -73.615 z"
       style="fill:#77481f;fill-opacity:1;fill-rule:evenodd;stroke:none"
       id="path21381" />
    <path
       d="m 196.611,258.769 h 73.615 v -20.147 h -73.615 z"
       style="fill:#77481f;fill-opacity:1;fill-rule:evenodd;stroke:none"
       id="path21383" />
    <path
       d="m 275.02,258.769 h 73.616 V 238.622 H 275.02 Z"
       style="fill:#77481f;fill-opacity:1;fill-rule:evenodd;stroke:none"
       id="path21385" />
    <path
       d="m 353.43,258.769 h 73.615 V 238.622 H 353.43 Z"
       style="fill:#77481f;fill-opacity:1;fill-rule:evenodd;stroke:none"
       id="path21387" />
    <path
       d="m 510.248,258.769 h 73.617 v -20.147 h -73.617 z"
       style="fill:#77481f;fill-opacity:1;fill-rule:evenodd;stroke:none"
       id="path21389" />
    <path
       d="m 0.322,214.793 h 73.615 v 20.148 H 0.322 Z"
       style="fill:#77481f;fill-opacity:1;fill-rule:nonzero;stroke:none"
       id="path21391" />
    <path
       d="m 78.73,234.941 h 73.615 V 214.793 H 78.73 Z"
       style="fill:#77481f;fill-opacity:1;fill-rule:evenodd;stroke:none"
       id="path21393" />
    <path
       d="m 235.548,234.941 h 73.616 v -20.148 h -73.616 z"
       style="fill:#77481f;fill-opacity:1;fill-rule:evenodd;stroke:none"
       id="path21395" />
    <path
       d="m 392.367,234.941 h 73.615 v -20.148 h -73.615 z"
       style="fill:#77481f;fill-opacity:1;fill-rule:evenodd;stroke:none"
       id="path21397" />
    <path
       d="m 470.777,234.941 h 73.615 v -20.148 h -73.615 z"
       style="fill:#77481f;fill-opacity:1;fill-rule:evenodd;stroke:none"
       id="path21399" />
    <path
       d="m 39.793,258.769 h 73.615 V 238.622 H 39.793 Z"
       style="fill:#77481f;fill-opacity:1;fill-rule:evenodd;stroke:none"
       id="path21401" />
    <path
       d="m 118.201,595.557 h 73.615 v -20.148 h -73.615 z"
       style="fill:#77481f;fill-opacity:1;fill-rule:evenodd;stroke:none"
       id="path21403" />
    <path
       d="m 353.43,595.557 h 73.615 V 575.409 H 353.43 Z"
       style="fill:#77481f;fill-opacity:1;fill-rule:evenodd;stroke:none"
       id="path21405" />
    <path
       d="m 431.84,595.557 h 73.615 V 575.409 H 431.84 Z"
       style="fill:#77481f;fill-opacity:1;fill-rule:evenodd;stroke:none"
       id="path21407" />
    <path
       d="m 510.248,595.557 h 73.617 v -20.148 h -73.617 z"
       style="fill:#77481f;fill-opacity:1;fill-rule:evenodd;stroke:none"
       id="path21409" />
    <path
       d="m 0.322,551.581 h 73.615 v 20.146 H 0.322 Z"
       style="fill:#77481f;fill-opacity:1;fill-rule:nonzero;stroke:none"
       id="path21411" />
    <path
       d="m 157.142,571.727 h 73.613 v -20.146 h -73.613 z"
       style="fill:#77481f;fill-opacity:1;fill-rule:evenodd;stroke:none"
       id="path21413" />
    <path
       d="m 235.548,571.727 h 73.616 v -20.146 h -73.616 z"
       style="fill:#77481f;fill-opacity:1;fill-rule:evenodd;stroke:none"
       id="path21415" />
    <path
       d="m 313.958,571.727 h 73.615 v -20.146 h -73.615 z"
       style="fill:#77481f;fill-opacity:1;fill-rule:evenodd;stroke:none"
       id="path21417" />
    <path
       d="m 39.793,595.557 h 73.615 V 575.409 H 39.793 Z"
       style="fill:#77481f;fill-opacity:1;fill-rule:evenodd;stroke:none"
       id="path21419" />
    <path
       d="m 0,575.409 h 34.998 v 20.148 H 0 Z"
       style="fill:#77481f;fill-opacity:1;fill-rule:nonzero;stroke:none"
       id="path21421" />
    <path
       d="m 0,527.297 h 34.998 v 20.146 H 0 Z"
       style="fill:#77481f;fill-opacity:1;fill-rule:nonzero;stroke:none"
       id="path21423" />
    <path
       d="m 0,479.184 h 34.998 v 20.147 H 0 Z"
       style="fill:#77481f;fill-opacity:1;fill-rule:nonzero;stroke:none"
       id="path21425" />
    <path
       d="m 0,431.071 h 34.998 v 20.147 H 0 Z"
       style="fill:#77481f;fill-opacity:1;fill-rule:nonzero;stroke:none"
       id="path21427" />
    <path
       d="m 0,382.958 h 34.998 v 20.148 H 0 Z"
       style="fill:#77481f;fill-opacity:1;fill-rule:nonzero;stroke:none"
       id="path21429" />
    <path
       d="m 0,334.846 h 34.998 v 20.147 H 0 Z"
       style="fill:#77481f;fill-opacity:1;fill-rule:nonzero;stroke:none"
       id="path21431" />
    <path
       d="m 0,286.734 h 34.998 v 20.147 H 0 Z"
       style="fill:#77481f;fill-opacity:1;fill-rule:nonzero;stroke:none"
       id="path21433" />
    <path
       d="m 0,238.622 h 34.998 v 20.147 H 0 Z"
       style="fill:#77481f;fill-opacity:1;fill-rule:nonzero;stroke:none"
       id="path21435" />
    <path
       d="m 588.659,238.622 h 10.775 v 20.147 h -10.775 z"
       style="fill:#77481f;fill-opacity:1;fill-rule:nonzero;stroke:none"
       id="path21437" />
    <path
       d="m 549.187,262.906 h 50.246 v 20.147 h -50.246 z"
       style="fill:#77481f;fill-opacity:1;fill-rule:nonzero;stroke:none"
       id="path21439" />
    <path
       d="m 588.659,286.734 h 10.775 v 20.147 h -10.775 z"
       style="fill:#77481f;fill-opacity:1;fill-rule:nonzero;stroke:none"
       id="path21441" />
    <path
       d="m 549.187,311.018 h 50.246 v 20.147 h -50.246 z"
       style="fill:#77481f;fill-opacity:1;fill-rule:nonzero;stroke:none"
       id="path21443" />
    <path
       d="m 588.659,334.846 h 10.775 v 20.147 h -10.775 z"
       style="fill:#77481f;fill-opacity:1;fill-rule:nonzero;stroke:none"
       id="path21445" />
    <path
       d="m 549.187,359.132 h 50.246 v 20.146 h -50.246 z"
       style="fill:#77481f;fill-opacity:1;fill-rule:nonzero;stroke:none"
       id="path21447" />
    <path
       d="m 588.659,382.958 h 10.775 v 20.148 h -10.775 z"
       style="fill:#77481f;fill-opacity:1;fill-rule:nonzero;stroke:none"
       id="path21449" />
    <path
       d="m 549.187,407.245 h 50.246 v 20.146 h -50.246 z"
       style="fill:#77481f;fill-opacity:1;fill-rule:nonzero;stroke:none"
       id="path21451" />
    <path
       d="m 588.659,431.071 h 10.775 v 20.147 h -10.775 z"
       style="fill:#77481f;fill-opacity:1;fill-rule:nonzero;stroke:none"
       id="path21453" />
    <path
       d="m 549.187,455.355 h 50.246 v 20.148 h -50.246 z"
       style="fill:#77481f;fill-opacity:1;fill-rule:nonzero;stroke:none"
       id="path21455" />
    <path
       d="m 588.659,479.184 h 10.775 v 20.147 h -10.775 z"
       style="fill:#77481f;fill-opacity:1;fill-rule:nonzero;stroke:none"
       id="path21457" />
    <path
       d="m 549.187,503.468 h 50.246 v 20.148 h -50.246 z"
       style="fill:#77481f;fill-opacity:1;fill-rule:nonzero;stroke:none"
       id="path21459" />
    <path
       d="m 588.659,527.297 h 10.775 v 20.146 h -10.775 z"
       style="fill:#77481f;fill-opacity:1;fill-rule:nonzero;stroke:none"
       id="path21461" />
    <path
       d="m 549.187,551.581 h 50.246 v 20.146 h -50.246 z"
       style="fill:#77481f;fill-opacity:1;fill-rule:nonzero;stroke:none"
       id="path21463" />
    <path
       d="m 588.659,575.409 h 10.775 v 20.148 h -10.775 z"
       style="fill:#77481f;fill-opacity:1;fill-rule:nonzero;stroke:none"
       id="path21465" />
    <path
       d="m 39.793,547.443 h 73.615 V 527.297 H 39.793 Z"
       style="fill:#77481f;fill-opacity:1;fill-rule:evenodd;stroke:none"
       id="path21467" />
  </g>
</svg>
